<svg xmlns:svg="http://www.w3.org/2000/svg" xmlns="http://www.w3.org/2000/svg" version="1.0"  id="svg2" viewBox="0 0 1000 1000"><defs id="defs4"/><g id="layer1"><path d="M49.489 205.693h7.697v33.605q0 8.769 -1.984 13.925t-7.161 8.392q-5.179 3.233 -13.589 3.233 -8.173 0 -13.37 -2.817t-7.419 -8.153 -2.222 -14.58V205.694h7.697v33.564q0 7.579 1.409 11.169t4.84 5.534 8.391 1.944q8.491 0 12.101 -3.848t3.61 -14.799zm19.639 58.163v-42.134h6.427v5.991q4.641 -6.943 13.41 -6.943 3.809 0 7.003 1.369t4.78 3.591 2.222 5.277q0.397 1.984 0.397 6.943v25.908h-7.142v-25.63q0 -4.364 -0.833 -6.526t-2.956 -3.451 -4.979 -1.29q-4.563 0 -7.875 2.896 -3.314 2.896 -3.313 10.991v23.011zm45.268 -49.95v-8.213h7.142v8.213zm0 49.95v-42.134h7.142v42.134zm29.756 0 -16.027 -42.134h7.537l9.046 25.233a122.945 122.945 0 0 1 2.698 8.491q0.953 -3.332 2.658 -8.014l9.363 -25.709h7.339l-15.949 42.134zm57.766 -13.569 7.379 0.913q-1.745 6.467 -6.467 10.038t-12.06 3.57q-9.245 0 -14.66 -5.693t-5.416 -15.97q0 -10.633 5.475 -16.504t14.203 -5.872q8.45 0 13.806 5.754t5.356 16.187q0 0.635 -0.04 1.904h-31.422q0.397 6.943 3.927 10.634t8.807 3.689q3.928 0 6.704 -2.063 2.778 -2.063 4.403 -6.586m-23.449 -11.545h23.527q-0.477 -5.316 -2.699 -7.975 -3.413 -4.127 -8.847 -4.127 -4.92 0 -8.272 3.293t-3.71 8.807m39.754 25.114v-42.134h6.427v6.388q2.46 -4.483 4.543 -5.911t4.583 -1.429q3.61 0 7.339 2.301l-2.46 6.626q-2.619 -1.548 -5.236 -1.548 -2.341 0 -4.205 1.409t-2.658 3.908q-1.191 3.807 -1.191 8.331v22.06zm24.36 -12.577 7.061 -1.11q0.595 4.246 3.313 6.506t7.598 2.262q4.92 0 7.3 -2.004t2.381 -4.701q0 -2.42 -2.103 -3.809 -1.467 -0.953 -7.3 -2.42 -7.855 -1.984 -10.891 -3.432 -3.035 -1.448 -4.602 -4.008 -1.567 -2.558 -1.567 -5.653 0 -2.817 1.289 -5.217a11.6 11.6 0 0 1 3.512 -3.988q1.666 -1.23 4.543 -2.083 2.876 -0.853 6.169 -0.853 4.959 0 8.708 1.429t5.535 3.868q1.785 2.44 2.46 6.527l-6.983 0.952q-0.477 -3.253 -2.757 -5.078t-6.447 -1.824q-4.92 0 -7.022 1.627t-2.103 3.808q0 1.389 0.873 2.5 0.874 1.151 2.738 1.905 1.071 0.397 6.309 1.824 7.578 2.023 10.573 3.313t4.702 3.749 1.706 6.111q-0.001 3.57 -2.083 6.724t-6.011 4.88q-3.927 1.726 -8.887 1.726 -8.213 0 -12.518 -3.413t-5.495 -10.116m43.523 -37.373v-8.213h7.142v8.213zm0 49.95v-42.134h7.142v42.134zm33.644 -6.388 1.031 6.309q-3.015 0.635 -5.396 0.635 -3.889 0 -6.031 -1.23t-3.015 -3.233 -0.873 -8.431v-24.241h-5.236v-5.555h5.236V211.286l7.102 -4.285v14.72h7.181v5.554h-7.181v24.639q0 3.055 0.377 3.927t1.229 1.389 2.44 0.516q1.189 0 3.134 -0.278m6.625 22.615 -0.793 -6.704q2.341 0.635 4.087 0.635 2.381 0 3.808 -0.794t2.341 -2.222q0.675 -1.071 2.181 -5.316 0.198 -0.594 0.635 -1.746l-15.989 -42.214h7.697l8.768 24.401q1.706 4.641 3.056 9.759a96.174 96.174 0 0 1 2.936 -9.602l9.006 -24.558h7.142l-16.027 42.848q-2.579 6.942 -4.008 9.561 -1.904 3.532 -4.364 5.178t-5.872 1.647q-2.063 0 -4.603 -0.873m60.821 -37.294q0 -11.704 6.506 -17.337 5.435 -4.681 13.252 -4.681 8.688 0 14.203 5.693t5.515 15.731q0 8.133 -2.44 12.794 -2.44 4.663 -7.101 7.241 -4.662 2.58 -10.177 2.58 -8.848 0 -14.303 -5.673t-5.456 -16.347m7.339 0q0 8.094 3.532 12.121t8.888 4.026q5.316 0 8.847 -4.046t3.532 -12.338q0 -7.817 -3.551 -11.843 -3.551 -4.027 -8.827 -4.027 -5.356 0 -8.888 4.008t-3.532 12.1m42.254 21.067v-36.579h-6.309v-5.555h6.309v-4.483q0 -4.246 0.754 -6.309 1.031 -2.777 3.631 -4.502t7.28 -1.726q3.015 0 6.666 0.714l-1.071 6.229q-2.223 -0.397 -4.205 -0.397 -3.253 0 -4.602 1.388 -1.348 1.389 -1.348 5.197v3.888h8.213v5.555h-8.213v36.579z" id="text4411" style="font-size:38.53231812px;font-style:normal;font-variant:normal;font-weight:normal;font-stretch:normal;text-align:start;line-height:100%;writing-mode:lr-tb;text-anchor:start;fill:#00519f;fill-opacity:1;stroke:none;stroke-width:1px;stroke-linecap:butt;stroke-linejoin:miter;stroke-opacity:1;font-family:Arial;-inkscape-font-specification:Arial"/><path d="M11.442 342.739v-58.163h42.055v6.863H19.139v17.814h32.176v6.824H19.139v19.798h35.707v6.864zm80.697 -5.197q-3.967 3.372 -7.636 4.761t-7.875 1.388q-6.943 0 -10.672 -3.392t-3.73 -8.669q0 -3.094 1.409 -5.654t3.69 -4.106 5.137 -2.341q2.103 -0.556 6.348 -1.072 8.649 -1.031 12.736 -2.459 0.04 -1.467 0.04 -1.865 0 -4.365 -2.023 -6.149 -2.738 -2.42 -8.134 -2.42 -5.039 0 -7.438 1.765 -2.401 1.767 -3.552 6.249L63.455 312.627q0.953 -4.484 3.134 -7.241 2.182 -2.758 6.309 -4.246t9.562 -1.488q5.396 0 8.768 1.27t4.959 3.194 2.223 4.859q0.356 1.825 0.357 6.586v9.521q0 9.959 0.456 12.597t1.805 5.059h-7.459q-1.11 -2.222 -1.429 -5.197m-0.595 -15.949q-3.888 1.586 -11.664 2.698 -4.403 0.635 -6.229 1.429 -1.824 0.793 -2.817 2.321 -0.992 1.527 -0.991 3.392 0 2.857 2.162 4.76 2.162 1.905 6.328 1.905 4.127 0 7.34 -1.806t4.721 -4.94q1.151 -2.42 1.151 -7.141zm15.473 8.569 7.061 -1.11q0.595 4.245 3.314 6.506t7.598 2.262q4.92 0 7.3 -2.004t2.381 -4.701q0 -2.42 -2.103 -3.809 -1.467 -0.953 -7.3 -2.42 -7.856 -1.984 -10.892 -3.433 -3.035 -1.448 -4.602 -4.008t-1.568 -5.654q0 -2.817 1.29 -5.217a11.6 11.6 0 0 1 3.511 -3.988q1.666 -1.23 4.543 -2.083t6.169 -0.854q4.959 0 8.708 1.429 3.75 1.429 5.535 3.869 1.785 2.44 2.46 6.526l-6.983 0.953q-0.476 -3.253 -2.756 -5.078t-6.447 -1.824q-4.92 0 -7.023 1.626t-2.103 3.809q0 1.389 0.873 2.5 0.873 1.151 2.738 1.905 1.071 0.397 6.308 1.824 7.579 2.024 10.573 3.314 2.995 1.288 4.702 3.749 1.706 2.46 1.706 6.111 0 3.57 -2.083 6.724t-6.011 4.88q-3.927 1.725 -8.887 1.725 -8.213 0 -12.518 -3.412t-5.495 -10.116m59.075 6.189 1.031 6.309q-3.015 0.635 -5.396 0.635 -3.889 0 -6.03 -1.23t-3.015 -3.233 -0.873 -8.431v-24.241h-5.236v-5.555h5.236v-10.434l7.102 -4.285v14.719h7.181v5.555h-7.182v24.638q0 3.056 0.377 3.927 0.377 0.874 1.229 1.389t2.44 0.516q1.19 0 3.134 -0.278m30.074 6.388v-58.163h7.697v51.3h28.645v6.864zm41.975 -21.067q0 -11.705 6.507 -17.338 5.434 -4.681 13.252 -4.681 8.688 0 14.203 5.693t5.515 15.731q0 8.134 -2.44 12.795t-7.101 7.241q-4.663 2.58 -10.177 2.579 -8.848 0 -14.303 -5.673t-5.455 -16.346m7.34 0q0 8.093 3.532 12.121t8.888 4.026q5.316 0 8.848 -4.046t3.532 -12.339q0 -7.816 -3.551 -11.842t-8.827 -4.027q-5.356 0 -8.888 4.008t-3.532 12.1m40.548 21.067v-42.134h6.427v5.991q4.641 -6.943 13.41 -6.943 3.809 0 7.003 1.369t4.78 3.59q1.587 2.223 2.222 5.277 0.397 1.984 0.397 6.943v25.908h-7.142v-25.63q0 -4.365 -0.833 -6.526t-2.956 -3.452q-2.124 -1.289 -4.979 -1.289 -4.563 0 -7.875 2.896t-3.313 10.99v23.011zm72.564 0v-5.316q-4.008 6.268 -11.783 6.268 -5.039 0 -9.264 -2.777t-6.547 -7.756q-2.321 -4.98 -2.321 -11.446 0 -6.309 2.103 -11.446t6.309 -7.875 9.402 -2.738q3.808 0 6.784 1.607t4.84 4.186v-20.87h7.1v58.163zm-22.574 -21.028q0 8.094 3.413 12.101t8.054 4.008q4.681 0 7.956 -3.828 3.273 -3.828 3.273 -11.684 0 -8.649 -3.333 -12.696 -3.331 -4.046 -8.212 -4.046 -4.761 0 -7.956 3.889t-3.194 12.259m37.81 -0.04q0 -11.705 6.506 -17.338 5.434 -4.681 13.252 -4.681 8.688 0 14.203 5.693t5.515 15.731q0 8.134 -2.44 12.795t-7.101 7.241q-4.663 2.58 -10.177 2.579 -8.848 0 -14.303 -5.673t-5.455 -16.346m7.339 0q0 8.093 3.532 12.121t8.888 4.026q5.317 0 8.848 -4.046 3.532 -4.047 3.532 -12.339 0 -7.816 -3.551 -11.842t-8.827 -4.027q-5.356 0 -8.888 4.008 -3.531 4.007 -3.531 12.1m40.548 21.067v-42.136h6.427v5.991q4.641 -6.943 13.41 -6.943 3.809 0 7.003 1.369t4.78 3.59q1.586 2.223 2.222 5.277 0.397 1.984 0.397 6.943v25.908h-7.142v-25.63q0 -4.365 -0.833 -6.526t-2.956 -3.452q-2.124 -1.289 -4.979 -1.289 -4.563 0 -7.875 2.896t-3.313 10.99v23.011z" id="text4415" style="font-size:38.53231812px;font-style:normal;font-variant:normal;font-weight:normal;font-stretch:normal;text-align:start;line-height:100%;writing-mode:lr-tb;text-anchor:start;fill:#00519f;fill-opacity:1;stroke:none;stroke-width:1px;stroke-linecap:butt;stroke-linejoin:miter;stroke-opacity:1;font-family:Arial;-inkscape-font-specification:Arial"/><path d="M12.714 6.789v97.33c0 20.415 1.236 35.87 3.756 46.326 1.738 7.054 5.334 13.8 10.808 20.23s12.912 11.659 22.339 15.682c9.426 4.025 23.271 6.063 41.515 6.063 15.117 0 27.388 -1.843 36.771 -5.535s16.867 -8.669 22.471 -14.893 9.447 -13.887 11.532 -22.931c2.085 -9.046 3.163 -24.483 3.163 -46.392V6.789h-31.161v100.954c0 14.44 -0.519 24.814 -1.648 31.039s-4.522 11.409 -10.081 15.682 -21.221 6.459 -32.167 6.459c-10.774 0 -25.255 -2.265 -31.466 -6.788q-9.318 -6.787 -11.796 -17.991c-0.956 -4.647 -1.451 -14.827 -1.451 -30.511V6.789zm312.946 1.516v180.953h128.499V158.549H358.245V8.304z" id="path4428" style="font-size:123.69880676px;font-style:normal;font-variant:normal;font-weight:bold;font-stretch:normal;text-align:start;line-height:100%;writing-mode:lr-tb;text-anchor:start;fill:#00519f;fill-opacity:1;stroke:none;stroke-width:1px;stroke-linecap:butt;stroke-linejoin:miter;stroke-opacity:1;font-family:Arial;-inkscape-font-specification:Arial Bold"/><path d="M176.846 189.287V6.8h141.655v30.871H209.456v40.457h101.878v30.747H209.456v49.668h109.046v30.747z" id="path4426" style="font-size:123.69880676px;font-style:normal;font-variant:normal;font-weight:bold;font-stretch:normal;text-align:start;line-height:100%;writing-mode:lr-tb;text-anchor:start;fill:#0097db;fill-opacity:1;stroke:none;stroke-width:1px;stroke-linecap:butt;stroke-linejoin:miter;stroke-opacity:1;font-family:Arial;-inkscape-font-specification:Arial Bold"/></g></svg>