<svg version="1.1" id="Layer_1" xmlns="http://www.w3.org/2000/svg" xmlns:xlink="http://www.w3.org/1999/xlink" x="0px" y="0px"
	 width="100%" viewBox="0 0 305 408" enable-background="new 0 0 305 408" xml:space="preserve">
<path fill="#050505" opacity="1.000000" stroke="none" 
	d="
M1.000003,386.000000 
	C1.000000,265.977356 1.000000,145.954727 1.312052,25.330303 
	C10.426723,15.701287 21.592260,15.864636 33.119049,15.892839 
	C114.582390,16.092161 196.046631,16.078686 277.510040,15.894439 
	C287.341919,15.872202 296.507263,16.374763 303.405243,24.548136 
	C304.003571,25.257092 305.122742,25.526451 306.000000,26.000004 
	C306.000000,145.689316 306.000000,265.378632 305.688416,385.669373 
	C295.782104,396.480011 283.407745,396.138824 270.724457,396.106201 
	C190.322037,395.899292 109.918678,395.928436 29.516071,396.094910 
	C19.702488,396.115204 10.512417,395.591919 3.593502,387.450134 
	C2.992472,386.742859 1.876686,386.473022 1.000003,386.000000 
M4.999847,348.500000 
	C5.000507,355.499878 4.982512,362.499786 5.005665,369.499603 
	C5.055641,384.608551 10.423922,389.992828 25.488550,389.995575 
	C79.987938,390.005463 134.487320,390.001282 188.986710,389.999420 
	C220.819672,389.998322 252.652740,390.037872 284.485535,389.961334 
	C295.111389,389.935791 301.508545,383.550446 301.952576,372.908936 
	C302.015106,371.411102 301.997772,369.909485 301.997772,368.409607 
	C301.999542,260.077484 301.999756,151.745392 301.995667,43.413277 
	C301.995605,41.580402 302.443756,39.550179 301.815704,37.952953 
	C300.161926,33.746918 298.590759,29.314501 295.949127,25.738745 
	C292.463715,21.020893 286.812958,20.969866 281.340851,20.972523 
	C196.175140,21.013882 111.009438,21.000519 25.843733,21.007013 
	C24.011545,21.007154 22.168427,20.980165 20.349056,21.157331 
	C12.098845,21.960722 5.869531,28.221659 5.154094,36.508884 
	C4.925359,39.158417 5.005304,41.837723 5.005140,44.503414 
	C4.998932,145.502274 4.999868,246.501144 4.999847,348.500000 
z"/>
<path fill="#080808" opacity="1.000000" stroke="none" 
	d="
M306.000000,25.531324 
	C305.122742,25.526451 304.003571,25.257092 303.405243,24.548136 
	C296.507263,16.374763 287.341919,15.872202 277.510040,15.894439 
	C196.046631,16.078686 114.582390,16.092161 33.119049,15.892839 
	C21.592260,15.864636 10.426723,15.701287 1.312052,24.864262 
	C1.000000,17.009897 1.000000,9.019794 1.000000,1.046189 
	C102.666679,1.046189 204.333344,1.046189 306.000000,1.046189 
	C306.000000,9.082465 306.000000,17.072554 306.000000,25.531324 
z"/>
<path fill="#080808" opacity="1.000000" stroke="none" 
	d="
M1.000003,386.468750 
	C1.876686,386.473022 2.992472,386.742859 3.593502,387.450134 
	C10.512417,395.591919 19.702488,396.115204 29.516071,396.094910 
	C109.918678,395.928436 190.322037,395.899292 270.724457,396.106201 
	C283.407745,396.138824 295.782104,396.480011 305.688416,386.135376 
	C306.000000,393.657104 306.000000,401.314178 306.000000,408.954956 
	C204.333328,408.954956 102.666656,408.954956 1.000000,408.954956 
	C1.000000,401.585785 1.000000,394.261627 1.000003,386.468750 
z"/>
<path fill="#040404" opacity="1.000000" stroke="none" 
	d="
M4.999847,348.000000 
	C4.999868,246.501144 4.998932,145.502274 5.005140,44.503414 
	C5.005304,41.837723 4.925359,39.158417 5.154094,36.508884 
	C5.869531,28.221659 12.098845,21.960722 20.349056,21.157331 
	C22.168427,20.980165 24.011545,21.007154 25.843733,21.007013 
	C111.009438,21.000519 196.175140,21.013882 281.340851,20.972523 
	C286.812958,20.969866 292.463715,21.020893 295.949127,25.738745 
	C298.590759,29.314501 300.161926,33.746918 301.815704,37.952953 
	C302.443756,39.550179 301.995605,41.580402 301.995667,43.413277 
	C301.999756,151.745392 301.999542,260.077484 301.997772,368.409607 
	C301.997772,369.909485 302.015106,371.411102 301.952576,372.908936 
	C301.508545,383.550446 295.111389,389.935791 284.485535,389.961334 
	C252.652740,390.037872 220.819672,389.998322 188.986710,389.999420 
	C134.487320,390.001282 79.987938,390.005463 25.488550,389.995575 
	C10.423922,389.992828 5.055641,384.608551 5.005665,369.499603 
	C4.982512,362.499786 5.000507,355.499878 4.999847,348.000000 
M10.514133,32.282047 
	C10.039373,36.044540 9.153718,39.806648 9.150208,43.569580 
	C9.071395,128.041260 9.088280,212.513046 9.090158,296.984802 
	C9.090714,321.976440 9.046726,346.968231 9.133813,371.959595 
	C9.166566,381.358643 13.630749,385.942993 22.866552,385.948090 
	C109.670799,385.996033 196.475098,385.996704 283.279327,385.948486 
	C293.064362,385.943024 297.051453,381.930450 297.053925,372.284210 
	C297.082672,261.321320 297.082794,150.358459 297.047241,39.395588 
	C297.044220,29.991140 293.002686,26.002432 283.614716,25.938860 
	C270.786285,25.851986 257.956818,25.905573 245.127792,25.905598 
	C171.319138,25.905735 97.510468,25.924095 23.701839,25.874737 
	C18.468063,25.871237 13.637205,26.282055 10.514133,32.282047 
z"/>
<path fill="#212121" opacity="1.000000" stroke="none" 
	d="
M10.697229,31.939734 
	C13.637205,26.282055 18.468063,25.871237 23.701839,25.874737 
	C97.510468,25.924095 171.319138,25.905735 245.127792,25.905598 
	C257.956818,25.905573 270.786285,25.851986 283.614716,25.938860 
	C293.002686,26.002432 297.044220,29.991140 297.047241,39.395588 
	C297.082794,150.358459 297.082672,261.321320 297.053925,372.284210 
	C297.051453,381.930450 293.064362,385.943024 283.279327,385.948486 
	C196.475098,385.996704 109.670799,385.996033 22.866552,385.948090 
	C13.630749,385.942993 9.166566,381.358643 9.133813,371.959595 
	C9.046726,346.968231 9.090714,321.976440 9.090158,296.984802 
	C9.088280,212.513046 9.071395,128.041260 9.150208,43.569580 
	C9.153718,39.806648 10.039373,36.044540 10.697229,31.939734 
M91.931847,230.521683 
	C91.599503,230.671478 91.267159,230.821274 90.991119,230.920898 
	C90.991119,230.920898 90.940918,230.864655 90.381912,230.720871 
	C86.577248,229.952103 87.164803,233.266861 85.463776,235.082840 
	C84.678360,233.873581 83.892944,232.664307 83.107529,231.455048 
	C83.009109,231.612778 82.910690,231.770523 82.812279,231.928253 
	C83.928925,232.989929 85.045578,234.051605 86.881798,234.948959 
	C89.235741,235.290741 91.589691,235.632523 94.511818,235.958069 
	C94.701286,235.958786 94.890755,235.959488 95.693230,236.298065 
	C96.987419,236.199463 98.281616,236.100861 100.094429,236.107880 
	C101.054901,234.732361 102.015373,233.356827 103.081551,231.953659 
	C103.081551,231.953659 103.198166,231.851120 103.198166,231.851120 
	C103.198166,231.851120 103.005493,232.015717 102.588905,231.879990 
	C101.728691,231.903061 100.868477,231.926147 99.387833,232.193420 
	C97.951324,232.145584 96.514816,232.097733 94.480476,232.014435 
	C94.281219,232.002365 94.081955,231.990280 93.591278,231.455429 
	C93.055573,231.281586 92.519867,231.107727 92.004768,230.996490 
	C92.004768,230.996490 92.063507,230.966599 91.931847,230.521683 
M154.458221,359.995392 
	C154.458221,359.995392 154.926208,359.967529 155.767670,359.953003 
	C157.088593,359.838287 158.622955,360.108337 159.681702,359.520996 
	C161.379776,358.579041 162.762939,357.069458 164.279190,355.799744 
	C162.729965,354.587311 161.183182,352.372284 159.631027,352.368530 
	C156.269745,352.360352 152.905685,353.484192 148.775070,354.295898 
	C148.925735,354.453430 148.329865,353.261963 147.552689,353.128815 
	C145.545975,352.785065 143.402039,352.617950 141.435547,353.004364 
	C140.752243,353.138672 139.729172,355.764160 140.064026,356.120026 
	C141.425735,357.566986 143.114044,359.110687 144.950775,359.591248 
	C146.733917,360.057739 148.845993,359.266937 151.208313,359.396729 
	C151.490860,359.618561 151.773407,359.840363 152.438965,360.134247 
	C152.955948,360.095428 153.472946,360.056641 154.458221,359.995392 
M95.146149,296.856049 
	C95.146149,296.856049 94.911781,296.959106 94.309242,296.858795 
	C92.782799,297.259766 91.046677,297.360199 89.831917,298.207825 
	C89.338066,298.552429 89.977715,300.521454 90.101616,301.751404 
	C91.691010,301.515106 93.280403,301.278809 95.232872,301.577454 
	C96.825851,301.467316 98.418831,301.357178 100.234497,301.200378 
	C100.234497,301.200378 100.640633,300.994263 100.992531,301.526306 
	C102.307465,301.504700 103.741051,301.816620 104.915062,301.398926 
	C108.421135,300.151520 111.678886,299.026337 115.430016,301.104279 
	C116.939682,301.940582 119.398628,301.724487 121.167114,301.167206 
	C122.122185,300.866211 122.532204,298.835449 123.188118,297.585083 
	C122.924782,297.109497 122.661446,296.633911 122.398117,296.158325 
	C119.354195,296.534668 116.288757,296.789703 113.272957,297.324585 
	C110.719841,297.777405 108.224152,298.554047 105.385017,298.518219 
	C105.267136,298.301208 105.149261,298.084229 105.084137,297.569305 
	C103.654129,297.334686 102.224121,297.100037 100.332283,296.653625 
	C99.869850,296.443329 99.407417,296.233002 98.412674,295.923309 
	C97.423141,296.188019 96.433609,296.452728 95.412071,296.775574 
	C95.412071,296.775574 95.401741,296.841187 95.146149,296.856049 
M141.925385,343.006866 
	C149.616547,343.052185 157.307724,343.097473 165.485092,343.593201 
	C171.920914,346.006836 174.778320,350.934631 175.230286,358.198181 
	C173.622452,360.566956 172.014603,362.935699 169.788940,365.572296 
	C168.934647,365.846802 168.080353,366.121338 166.434433,366.040955 
	C157.510651,366.234161 148.586884,366.427368 139.023911,366.444153 
	C138.018661,365.992554 137.013412,365.540955 135.738480,364.463867 
	C134.148041,360.999847 131.249969,357.503815 131.333710,354.080750 
	C131.417984,350.635040 134.466873,347.261810 136.744385,342.830078 
	C131.307861,346.040161 128.337204,349.781647 128.311539,354.866730 
	C128.287048,359.721375 130.575211,363.775208 135.773804,366.482666 
	C147.132095,370.508057 158.585266,369.660065 170.060730,367.110077 
	C170.482544,367.016327 170.812103,366.507446 171.783798,365.886780 
	C173.381592,362.996155 174.979401,360.105499 176.906525,356.528137 
	C178.484070,349.054321 175.181900,344.438141 164.928497,341.046417 
	C156.949463,341.030273 148.970444,341.014160 140.597107,341.223724 
	C140.233536,341.683990 139.869965,342.144257 139.506393,342.604553 
	C139.999817,342.746246 140.493240,342.887909 141.925385,343.006866 
M208.632904,290.959717 
	C208.435776,290.960663 208.238632,290.961639 207.612946,290.647278 
	C206.849548,290.126831 206.086151,289.606384 205.227783,289.021179 
	C202.770432,296.862396 204.902603,299.577942 212.580856,299.988190 
	C215.993484,300.170532 217.336029,298.107910 217.738251,295.902405 
	C218.031403,294.294891 216.825287,291.830597 215.489685,290.653656 
	C213.725876,289.099365 211.135895,287.773102 208.632904,290.959717 
M200.332214,160.707550 
	C199.150253,163.523224 197.968292,166.338913 196.786316,169.154587 
	C194.396698,166.607376 193.454514,164.020554 192.159256,161.624603 
	C190.917374,159.327377 189.309189,157.228149 187.861969,155.041901 
	C187.192169,157.722275 186.116287,160.377625 185.949158,163.088974 
	C185.707474,167.009857 186.123978,170.971298 186.259689,174.915436 
	C186.938232,174.924393 187.616760,174.933350 188.295303,174.942307 
	C188.563431,171.151627 188.831573,167.360947 189.099716,163.570282 
	C189.387650,163.558746 189.675583,163.547211 189.963516,163.535690 
	C191.734421,167.517960 193.505325,171.500244 195.276245,175.482513 
	C195.780411,175.538437 196.284592,175.594345 196.788757,175.650269 
	C198.554901,171.789139 200.321045,167.927994 202.087173,164.066864 
	C202.441086,164.131180 202.794998,164.195496 203.148926,164.259811 
	C203.491653,167.765503 203.834381,171.271194 204.177109,174.776886 
	C204.833527,174.752457 205.489929,174.728027 206.146347,174.703598 
	C206.146347,168.726120 206.208801,162.746994 206.052277,156.773621 
	C206.036163,156.158661 204.786163,155.308273 203.967590,155.085327 
	C203.497437,154.957275 202.518723,155.741180 202.165222,156.346130 
	C201.501221,157.482391 201.124649,158.786606 200.332214,160.707550 
M84.601997,245.969757 
	C83.947067,246.174896 83.292145,246.380035 82.637222,246.585175 
	C82.693115,246.794449 82.749008,247.003723 82.804901,247.212997 
	C129.913803,247.212997 177.022705,247.212997 224.131607,247.212997 
	C224.130859,246.790802 224.130112,246.368622 224.129364,245.946426 
	C177.877182,245.946426 131.625000,245.946426 84.601997,245.969757 
M174.296799,172.181122 
	C171.255035,167.487076 175.513031,168.995850 177.465103,168.307068 
	C179.232941,167.683304 182.226105,166.715408 182.283646,165.755630 
	C182.479614,162.487122 180.531723,159.601166 176.955185,160.026123 
	C174.700821,160.293991 171.334839,162.021164 170.833466,163.771454 
	C170.018509,166.616547 170.283279,170.528122 171.754288,173.000900 
	C172.712921,174.612366 176.589722,174.692215 179.212433,174.990372 
	C180.047058,175.085220 181.052795,173.675018 182.371445,172.649185 
	C179.349731,172.649185 177.137726,172.649185 174.296799,172.181122 
M215.904587,159.850235 
	C210.968765,160.920563 209.794968,164.524292 210.109512,168.864670 
	C210.381256,172.614517 212.477875,175.238388 216.331284,175.381882 
	C218.175858,175.450546 220.070679,174.169891 221.942734,173.500336 
	C221.823822,172.990906 221.704926,172.481476 221.586014,171.972031 
	C218.288055,172.918152 214.706512,174.669922 213.157349,168.963593 
	C216.603470,168.516449 219.722977,168.111694 222.988922,167.687943 
	C222.706802,162.945099 221.379028,159.922867 215.904587,159.850235 
M124.998222,174.500824 
	C128.153671,174.772919 131.309128,175.045029 135.008560,175.364044 
	C135.008560,171.106964 135.312988,167.476883 134.922607,163.923141 
	C134.535263,160.397156 131.699844,159.343384 128.633133,159.956284 
	C127.031181,160.276413 125.657654,161.739563 124.180946,162.686447 
	C124.428741,163.072891 124.676529,163.459320 124.924316,163.845749 
	C130.353989,161.183243 130.838501,161.293365 131.657196,165.375992 
	C122.973999,167.650177 122.101044,168.694809 124.998222,174.500824 
M150.499985,313.088989 
	C174.641678,313.088989 198.783356,313.088989 222.925049,313.088989 
	C222.922119,312.798706 222.919189,312.508423 222.916260,312.218140 
	C176.341125,312.218140 129.765991,312.218140 83.190865,312.218140 
	C83.190208,312.508423 83.189560,312.798737 83.188904,313.089020 
	C105.292595,313.089020 127.396278,313.089020 150.499985,313.088989 
M143.427002,160.425873 
	C142.218307,160.593933 140.657333,160.349899 139.875931,161.017838 
	C138.357422,162.315872 139.418518,172.787842 141.714798,175.586761 
	C141.884918,172.054871 141.602341,169.230103 142.293747,166.668182 
	C142.743469,165.001801 144.611328,163.718155 145.843842,162.263031 
	C146.810257,163.756363 148.270996,165.140823 148.629395,166.768066 
	C149.193176,169.327835 149.014771,172.051071 149.150604,174.705093 
	C149.908173,174.694687 150.665726,174.684265 151.423279,174.673859 
	C151.423279,171.902954 151.505417,169.129120 151.406174,166.361771 
	C151.199615,160.602158 149.939438,159.587402 143.427002,160.425873 
M110.324989,172.446823 
	C110.370361,170.290222 109.946884,167.973297 110.611946,166.028625 
	C111.128304,164.518784 113.003227,163.473541 114.274292,162.221802 
	C115.178940,163.584045 116.598595,164.849472 116.876762,166.329468 
	C117.392746,169.074692 117.241974,171.945236 117.406151,175.592484 
	C120.481682,171.812378 120.531502,163.351608 118.234093,161.069992 
	C116.055412,158.906296 108.214943,159.712799 107.958977,162.257828 
	C107.596062,165.866180 107.883598,169.539948 107.893158,173.185776 
	C108.678314,173.163727 109.463478,173.141678 110.324989,172.446823 
M91.536469,156.968445 
	C93.389992,156.874283 95.243507,156.780121 97.097031,156.685944 
	C97.068604,156.227234 97.040176,155.768524 97.011749,155.309814 
	C93.148094,155.309814 89.284431,155.309814 85.568794,155.309814 
	C85.568794,162.190689 85.568794,168.483505 85.568794,174.776306 
	C86.066620,175.053116 86.564438,175.329926 87.062263,175.606735 
	C87.215111,169.425400 88.970444,164.703918 95.568779,164.198502 
	C93.163666,164.020721 90.758545,163.842957 86.455193,163.524857 
	C88.345383,160.602463 89.511421,158.799683 91.536469,156.968445 
M162.801865,159.929855 
	C157.135635,160.005234 154.913452,161.926132 154.663315,166.964981 
	C154.423630,171.793121 156.630859,175.110611 160.490143,175.446487 
	C163.707108,175.726471 165.947617,174.442200 166.950272,172.009628 
	C163.718475,171.816467 159.959900,172.641205 158.662521,171.219681 
	C157.360153,169.792694 157.632889,165.528534 158.906357,163.660706 
	C159.705444,162.488663 163.622467,163.442413 166.962936,163.442413 
	C165.925720,162.441147 164.696732,161.254745 162.801865,159.929855 
M101.881821,160.694489 
	C101.465050,165.313080 101.048271,169.931686 100.631493,174.550278 
	C101.586388,174.553787 102.541275,174.557297 103.496170,174.560791 
	C103.129448,169.935638 102.762726,165.310486 101.881821,160.694489 
M212.913895,234.796463 
	C213.898453,234.154709 214.883011,233.512970 215.867554,232.871201 
	C215.070419,232.144196 214.384140,231.025726 213.455582,230.762802 
	C210.544769,229.938553 207.666779,229.820755 205.109268,234.024231 
	C207.911835,234.342087 210.026596,234.581924 212.913895,234.796463 
M131.735016,231.215744 
	C129.163986,229.081818 127.614822,230.596817 127.241455,232.987900 
	C127.064087,234.123703 128.602631,235.527451 129.363846,236.809799 
	C130.257751,235.127747 131.151672,233.445694 131.735016,231.215744 
M213.465881,226.307800 
	C212.270172,225.436111 211.074463,224.564423 209.878754,223.692734 
	C209.549194,224.933304 209.219650,226.173874 208.890091,227.414444 
	C210.347336,227.254593 211.804581,227.094742 213.465881,226.307800 
z"/>
<path fill="#145D9F" opacity="1.000000" stroke="none" 
	d="
M200.480377,160.364273 
	C201.124649,158.786606 201.501221,157.482391 202.165222,156.346130 
	C202.518723,155.741180 203.497437,154.957275 203.967590,155.085327 
	C204.786163,155.308273 206.036163,156.158661 206.052277,156.773621 
	C206.208801,162.746994 206.146347,168.726120 206.146347,174.703598 
	C205.489929,174.728027 204.833527,174.752457 204.177109,174.776886 
	C203.834381,171.271194 203.491653,167.765503 203.148926,164.259811 
	C202.794998,164.195496 202.441086,164.131180 202.087173,164.066864 
	C200.321045,167.927994 198.554901,171.789139 196.788757,175.650269 
	C196.284592,175.594345 195.780411,175.538437 195.276245,175.482513 
	C193.505325,171.500244 191.734421,167.517960 189.963516,163.535690 
	C189.675583,163.547211 189.387650,163.558746 189.099716,163.570282 
	C188.831573,167.360947 188.563431,171.151627 188.295303,174.942307 
	C187.616760,174.933350 186.938232,174.924393 186.259689,174.915436 
	C186.123978,170.971298 185.707474,167.009857 185.949158,163.088974 
	C186.116287,160.377625 187.192169,157.722275 187.861969,155.041901 
	C189.309189,157.228149 190.917374,159.327377 192.159256,161.624603 
	C193.454514,164.020554 194.396698,166.607376 196.786316,169.154587 
	C197.968292,166.338913 199.150253,163.523224 200.480377,160.364273 
z"/>
<path fill="#595959" opacity="1.000000" stroke="none" 
	d="
M84.987404,245.958099 
	C131.625000,245.946426 177.877182,245.946426 224.129364,245.946426 
	C224.130112,246.368622 224.130859,246.790802 224.131607,247.212997 
	C177.022705,247.212997 129.913803,247.212997 82.804901,247.212997 
	C82.749008,247.003723 82.693115,246.794449 82.637222,246.585175 
	C83.292145,246.380035 83.947067,246.174896 84.987404,245.958099 
z"/>
<path fill="#212325" opacity="1.000000" stroke="none" 
	d="
M150.813629,359.028259 
	C148.845993,359.266937 146.733917,360.057739 144.950775,359.591248 
	C143.114044,359.110687 141.425735,357.566986 140.064026,356.120026 
	C139.729172,355.764160 140.752243,353.138672 141.435547,353.004364 
	C143.402039,352.617950 145.545975,352.785065 147.552689,353.128815 
	C148.329865,353.261963 148.925735,354.453430 148.775070,354.295898 
	C152.905685,353.484192 156.269745,352.360352 159.631027,352.368530 
	C161.183182,352.372284 162.729965,354.587311 164.279205,355.799744 
	C162.762939,357.069458 161.379776,358.579041 159.681702,359.520996 
	C158.622955,360.108337 157.088593,359.838287 155.212494,359.717346 
	C153.376099,359.330566 152.094864,359.179413 150.813629,359.028259 
z"/>
<path fill="#155C9D" opacity="1.000000" stroke="none" 
	d="
M174.611267,172.415161 
	C177.137726,172.649185 179.349731,172.649185 182.371445,172.649185 
	C181.052795,173.675018 180.047058,175.085220 179.212433,174.990372 
	C176.589722,174.692215 172.712921,174.612366 171.754288,173.000900 
	C170.283279,170.528122 170.018509,166.616547 170.833466,163.771454 
	C171.334839,162.021164 174.700821,160.293991 176.955185,160.026123 
	C180.531723,159.601166 182.479614,162.487122 182.283646,165.755630 
	C182.226105,166.715408 179.232941,167.683304 177.465103,168.307068 
	C175.513031,168.995850 171.255035,167.487076 174.611267,172.415161 
z"/>
<path fill="#155C9D" opacity="1.000000" stroke="none" 
	d="
M216.257263,159.832611 
	C221.379028,159.922867 222.706802,162.945099 222.988922,167.687943 
	C219.722977,168.111694 216.603470,168.516449 213.157349,168.963593 
	C214.706512,174.669922 218.288055,172.918152 221.586014,171.972031 
	C221.704926,172.481476 221.823822,172.990906 221.942734,173.500336 
	C220.070679,174.169891 218.175858,175.450546 216.331284,175.381882 
	C212.477875,175.238388 210.381256,172.614517 210.109512,168.864670 
	C209.794968,164.524292 210.968765,160.920563 216.257263,159.832611 
z"/>
<path fill="#155C9D" opacity="1.000000" stroke="none" 
	d="
M124.721756,174.253479 
	C122.101044,168.694809 122.973999,167.650177 131.657196,165.375992 
	C130.838501,161.293365 130.353989,161.183243 124.924316,163.845749 
	C124.676529,163.459320 124.428741,163.072891 124.180946,162.686447 
	C125.657654,161.739563 127.031181,160.276413 128.633133,159.956284 
	C131.699844,159.343384 134.535263,160.397156 134.922607,163.923141 
	C135.312988,167.476883 135.008560,171.106964 135.008560,175.364044 
	C131.309128,175.045029 128.153671,174.772919 124.721756,174.253479 
M130.618927,172.576462 
	C131.033875,171.350204 131.448807,170.123947 131.863754,168.897705 
	C130.645538,168.751282 129.325226,168.254990 128.242004,168.571121 
	C127.402924,168.815994 126.860329,170.076843 126.185928,170.886063 
	C127.439110,171.534988 128.692291,172.183914 130.618927,172.576462 
z"/>
<path fill="#707070" opacity="1.000000" stroke="none" 
	d="
M149.999969,313.088989 
	C127.396278,313.089020 105.292595,313.089020 83.188904,313.089020 
	C83.189560,312.798737 83.190208,312.508423 83.190865,312.218140 
	C129.765991,312.218140 176.341125,312.218140 222.916260,312.218140 
	C222.919189,312.508423 222.922119,312.798706 222.925049,313.088989 
	C198.783356,313.088989 174.641678,313.088989 149.999969,313.088989 
z"/>
<path fill="#155C9D" opacity="1.000000" stroke="none" 
	d="
M143.726654,160.314713 
	C149.939438,159.587402 151.199615,160.602158 151.406174,166.361771 
	C151.505417,169.129120 151.423279,171.902954 151.423279,174.673859 
	C150.665726,174.684265 149.908173,174.694687 149.150604,174.705093 
	C149.014771,172.051071 149.193176,169.327835 148.629395,166.768066 
	C148.270996,165.140823 146.810257,163.756363 145.843842,162.263031 
	C144.611328,163.718155 142.743469,165.001801 142.293747,166.668182 
	C141.602341,169.230103 141.884918,172.054871 141.714798,175.586761 
	C139.418518,172.787842 138.357422,162.315872 139.875931,161.017838 
	C140.657333,160.349899 142.218307,160.593933 143.726654,160.314713 
z"/>
<path fill="#145D9F" opacity="1.000000" stroke="none" 
	d="
M110.286812,172.783234 
	C109.463478,173.141678 108.678314,173.163727 107.893158,173.185760 
	C107.883598,169.539948 107.596062,165.866180 107.958977,162.257828 
	C108.214943,159.712799 116.055412,158.906296 118.234093,161.069992 
	C120.531502,163.351608 120.481682,171.812378 117.406151,175.592484 
	C117.241974,171.945236 117.392746,169.074692 116.876762,166.329468 
	C116.598595,164.849472 115.178940,163.584045 114.274292,162.221802 
	C113.003227,163.473541 111.128304,164.518784 110.611946,166.028625 
	C109.946884,167.973297 110.370361,170.290222 110.286812,172.783234 
z"/>
<path fill="#145FA3" opacity="1.000000" stroke="none" 
	d="
M91.106964,156.982666 
	C89.511421,158.799683 88.345383,160.602463 86.455193,163.524857 
	C90.758545,163.842957 93.163666,164.020721 95.568779,164.198502 
	C88.970444,164.703918 87.215111,169.425400 87.062263,175.606735 
	C86.564438,175.329926 86.066620,175.053116 85.568794,174.776306 
	C85.568794,168.483505 85.568794,162.190689 85.568794,155.309814 
	C89.284431,155.309814 93.148094,155.309814 97.011749,155.309814 
	C97.040176,155.768524 97.068604,156.227234 97.097031,156.685944 
	C95.243507,156.780121 93.389992,156.874283 91.106964,156.982666 
z"/>
<path fill="#626262" opacity="1.000000" stroke="none" 
	d="
M105.703049,299.187378 
	C108.224152,298.554047 110.719841,297.777405 113.272957,297.324585 
	C116.288757,296.789703 119.354195,296.534668 122.398117,296.158325 
	C122.661446,296.633911 122.924782,297.109497 123.188118,297.585083 
	C122.532204,298.835449 122.122185,300.866211 121.167114,301.167206 
	C119.398628,301.724487 116.939682,301.940582 115.430016,301.104279 
	C111.678886,299.026337 108.421135,300.151520 104.915062,301.398926 
	C103.741051,301.816620 102.307465,301.504700 101.061615,301.189911 
	C101.018501,299.524139 100.906303,298.194794 100.794113,296.865417 
	C102.224121,297.100037 103.654129,297.334686 104.980522,297.899475 
	C105.152283,298.548859 105.427658,298.868103 105.703049,299.187378 
M102.835411,297.530182 
	C102.976486,297.526184 103.117561,297.522186 103.258636,297.518188 
	C103.165543,297.470581 103.072456,297.423004 102.835411,297.530182 
z"/>
<path fill="#155C9D" opacity="1.000000" stroke="none" 
	d="
M163.134796,159.999115 
	C164.696732,161.254745 165.925720,162.441147 166.962936,163.442413 
	C163.622467,163.442413 159.705444,162.488663 158.906357,163.660706 
	C157.632889,165.528534 157.360153,169.792694 158.662521,171.219681 
	C159.959900,172.641205 163.718475,171.816467 166.950272,172.009628 
	C165.947617,174.442200 163.707108,175.726471 160.490143,175.446487 
	C156.630859,175.110611 154.423630,171.793121 154.663315,166.964981 
	C154.913452,161.926132 157.135635,160.005234 163.134796,159.999115 
z"/>
<path fill="#505050" opacity="1.000000" stroke="none" 
	d="
M209.224136,290.974701 
	C211.135895,287.773102 213.725876,289.099365 215.489685,290.653656 
	C216.825287,291.830597 218.031403,294.294891 217.738251,295.902405 
	C217.336029,298.107910 215.993484,300.170532 212.580856,299.988190 
	C204.902603,299.577942 202.770432,296.862396 205.227783,289.021179 
	C206.086151,289.606384 206.849548,290.126831 207.992676,291.089722 
	C210.006546,293.121643 211.640686,294.711090 214.023056,297.028320 
	C214.516678,291.911255 212.315659,291.004272 209.224136,290.974701 
z"/>
<path fill="#215F95" opacity="1.000000" stroke="none" 
	d="
M136.008148,365.089355 
	C137.013412,365.540955 138.018661,365.992554 139.763840,366.637390 
	C149.411194,366.685699 158.318634,366.540802 167.226059,366.395874 
	C168.080353,366.121338 168.934647,365.846802 170.292221,365.660431 
	C170.925232,365.896393 171.054947,366.044220 171.184647,366.192047 
	C170.812103,366.507446 170.482544,367.016327 170.060730,367.110077 
	C158.585266,369.660065 147.132095,370.508057 135.649048,366.100525 
	C135.700348,365.520111 135.861633,365.310425 136.008148,365.089355 
z"/>
<path fill="#212325" opacity="1.000000" stroke="none" 
	d="
M135.873322,364.776611 
	C135.861633,365.310425 135.700348,365.520111 135.392303,365.866669 
	C130.575211,363.775208 128.287048,359.721375 128.311539,354.866730 
	C128.337204,349.781647 131.307861,346.040161 136.744385,342.830078 
	C134.466873,347.261810 131.417984,350.635040 131.333710,354.080750 
	C131.249969,357.503815 134.148041,360.999847 135.873322,364.776611 
z"/>
<path fill="#1363AC" opacity="1.000000" stroke="none" 
	d="
M102.138916,160.689911 
	C102.762726,165.310486 103.129448,169.935638 103.496170,174.560791 
	C102.541275,174.557297 101.586388,174.553787 100.631493,174.550278 
	C101.048271,169.931686 101.465050,165.313080 102.138916,160.689911 
z"/>
<path fill="#212325" opacity="1.000000" stroke="none" 
	d="
M165.844864,341.064850 
	C175.181900,344.438141 178.484070,349.054321 176.536026,356.964478 
	C175.873703,357.485229 175.575912,357.525970 175.272141,357.523071 
	C174.778320,350.934631 171.920914,346.006836 165.477966,343.182159 
	C165.595535,342.202362 165.720200,341.633606 165.844864,341.064850 
z"/>
<path fill="#212325" opacity="1.000000" stroke="none" 
	d="
M166.830246,366.218414 
	C158.318634,366.540802 149.411194,366.685699 140.083435,366.725586 
	C148.586884,366.427368 157.510651,366.234161 166.830246,366.218414 
z"/>
<path fill="#505050" opacity="1.000000" stroke="none" 
	d="
M212.527618,234.809113 
	C210.026596,234.581924 207.911835,234.342087 205.109268,234.024231 
	C207.666779,229.820755 210.544769,229.938553 213.455582,230.762802 
	C214.384140,231.025726 215.070419,232.144196 215.867554,232.871216 
	C214.883011,233.512970 213.898453,234.154709 212.527618,234.809113 
z"/>
<path fill="#215B8F" opacity="1.000000" stroke="none" 
	d="
M165.386688,341.055634 
	C165.720200,341.633606 165.595535,342.202362 165.234863,342.956970 
	C157.307724,343.097473 149.616547,343.052185 141.376205,342.683014 
	C140.881821,341.905457 140.936600,341.451721 140.991394,340.998016 
	C148.970444,341.014160 156.949463,341.030273 165.386688,341.055634 
z"/>
<path fill="#626262" opacity="1.000000" stroke="none" 
	d="
M86.240158,235.175705 
	C87.164803,233.266861 86.577248,229.952103 90.773270,231.115570 
	C92.090965,232.998276 93.017303,234.486282 93.943634,235.974289 
	C91.589691,235.632523 89.235741,235.290741 86.541641,235.046509 
	C86.201492,235.144058 86.240158,235.175705 86.240158,235.175705 
M91.025490,234.344696 
	C91.101219,234.635223 91.176956,234.925751 91.252686,235.216278 
	C91.299103,234.932495 91.345520,234.648697 91.025490,234.344696 
z"/>
<path fill="#323232" opacity="1.000000" stroke="none" 
	d="
M94.869797,301.042480 
	C93.280403,301.278809 91.691010,301.515106 90.101616,301.751404 
	C89.977715,300.521454 89.338066,298.552429 89.831917,298.207825 
	C91.046677,297.360199 92.782799,297.259766 94.640106,297.230957 
	C95.018578,298.031586 95.066185,298.460114 95.100609,299.047302 
	C95.067261,299.524017 95.084854,299.840912 95.083145,300.381348 
	C95.026093,300.606018 94.869797,301.042480 94.869797,301.042480 
z"/>
<path fill="#626262" opacity="1.000000" stroke="none" 
	d="
M131.890289,231.489685 
	C131.151672,233.445694 130.257751,235.127747 129.363846,236.809799 
	C128.602631,235.527451 127.064087,234.123703 127.241455,232.987900 
	C127.614822,230.596817 129.163986,229.081818 131.890289,231.489685 
z"/>
<path fill="#505050" opacity="1.000000" stroke="none" 
	d="
M213.363861,226.621338 
	C211.804581,227.094742 210.347336,227.254593 208.890091,227.414444 
	C209.219650,226.173874 209.549194,224.933304 209.878754,223.692734 
	C211.074463,224.564423 212.270172,225.436111 213.363861,226.621338 
z"/>
<path fill="#626262" opacity="1.000000" stroke="none" 
	d="
M95.113792,298.888611 
	C95.066185,298.460114 95.018578,298.031586 94.941376,297.281097 
	C94.911781,296.959106 95.146149,296.856049 95.411415,296.815002 
	C95.816345,296.834320 95.956009,296.894653 96.095673,296.955017 
	C95.976067,297.002563 95.816620,297.121582 95.745552,297.082001 
	C95.617203,297.010468 95.541672,296.844177 95.444077,296.717407 
	C96.433609,296.452728 97.423141,296.188019 98.697296,296.421082 
	C99.325226,298.361572 99.668518,299.804321 100.011818,301.247070 
	C98.418831,301.357178 96.825851,301.467316 95.051331,301.309967 
	C94.869797,301.042480 95.026093,300.606018 95.167252,300.062439 
	C95.243546,299.308746 95.178665,299.098663 95.113792,298.888611 
z"/>
<path fill="#323232" opacity="1.000000" stroke="none" 
	d="
M208.928528,290.967224 
	C212.315659,291.004272 214.516678,291.911255 214.023056,297.028320 
	C211.640686,294.711090 210.006546,293.121643 208.206940,291.247375 
	C208.238632,290.961639 208.435776,290.960663 208.928528,290.967224 
z"/>
<path fill="#323232" opacity="1.000000" stroke="none" 
	d="
M100.008263,231.949219 
	C100.868477,231.926147 101.728691,231.903061 102.791283,231.938614 
	C102.993660,231.997238 102.975853,231.981308 102.975853,231.981308 
	C102.015373,233.356827 101.054901,234.732361 99.491798,235.969269 
	C98.001869,235.546066 97.114563,235.261459 96.443069,234.727509 
	C97.775337,233.635162 98.891800,232.792191 100.008263,231.949219 
z"/>
<path fill="#215F95" opacity="1.000000" stroke="none" 
	d="
M175.251221,357.860626 
	C175.575912,357.525970 175.873703,357.485229 176.371368,357.307861 
	C174.979401,360.105499 173.381592,362.996155 171.484222,366.039429 
	C171.054947,366.044220 170.925232,365.896393 170.601135,365.526520 
	C172.014603,362.935699 173.622452,360.566956 175.251221,357.860626 
z"/>
<path fill="#323232" opacity="1.000000" stroke="none" 
	d="
M100.123154,301.223724 
	C99.668518,299.804321 99.325226,298.361572 98.963455,296.470764 
	C99.407417,296.233002 99.869850,296.443329 100.563202,296.759521 
	C100.906303,298.194794 101.018501,299.524139 100.885666,300.923889 
	C100.640633,300.994263 100.234497,301.200378 100.123154,301.223724 
z"/>
<path fill="#626262" opacity="1.000000" stroke="none" 
	d="
M86.181854,235.128662 
	C85.045578,234.051605 83.928925,232.989929 82.812279,231.928253 
	C82.910690,231.770523 83.009109,231.612778 83.107529,231.455048 
	C83.892944,232.664307 84.678360,233.873581 85.851967,235.129272 
	C86.240158,235.175705 86.201492,235.144058 86.181854,235.128662 
z"/>
<path fill="#323232" opacity="1.000000" stroke="none" 
	d="
M94.227722,235.966187 
	C93.017303,234.486282 92.090965,232.998276 91.052773,231.187469 
	C90.940918,230.864655 90.991119,230.920898 91.245193,230.960693 
	C91.687340,230.989197 91.875420,230.977905 92.063507,230.966599 
	C92.063507,230.966599 92.004768,230.996490 92.162529,231.191345 
	C92.841095,231.583527 93.361893,231.780869 93.882698,231.978210 
	C94.081955,231.990280 94.281219,232.002365 94.721497,232.396255 
	C94.998444,233.511002 95.034386,234.243927 95.065247,235.222778 
	C95.060173,235.468689 95.080223,235.960205 95.080223,235.960205 
	C94.890755,235.959488 94.701286,235.958786 94.227722,235.966187 
z"/>
<path fill="#707070" opacity="1.000000" stroke="none" 
	d="
M95.070328,234.976852 
	C95.034386,234.243927 94.998444,233.511002 95.020409,232.413986 
	C96.514816,232.097733 97.951324,232.145584 99.698044,232.071320 
	C98.891800,232.792191 97.775337,233.635162 96.153824,234.730637 
	C95.455948,234.981049 95.263138,234.978943 95.070328,234.976852 
z"/>
<path fill="#323232" opacity="1.000000" stroke="none" 
	d="
M151.010971,359.212494 
	C152.094864,359.179413 153.376099,359.330566 154.791779,359.724609 
	C154.926208,359.967529 154.458221,359.995392 154.032074,359.955139 
	C153.089249,359.963989 152.572601,360.013092 152.055939,360.062195 
	C151.773407,359.840363 151.490860,359.618561 151.010971,359.212494 
z"/>
<path fill="#212325" opacity="1.000000" stroke="none" 
	d="
M140.794250,341.110870 
	C140.936600,341.451721 140.881821,341.905457 140.906860,342.694366 
	C140.493240,342.887909 139.999817,342.746246 139.506393,342.604553 
	C139.869965,342.144257 140.233536,341.683990 140.794250,341.110870 
z"/>
<path fill="#626262" opacity="1.000000" stroke="none" 
	d="
M95.065247,235.222778 
	C95.263138,234.978943 95.455948,234.981049 95.938019,234.980011 
	C97.114563,235.261459 98.001869,235.546066 99.232483,235.916473 
	C98.281616,236.100861 96.987419,236.199463 95.386726,236.129135 
	C95.080223,235.960205 95.060173,235.468689 95.065247,235.222778 
z"/>
<path fill="#212325" opacity="1.000000" stroke="none" 
	d="
M152.247452,360.098206 
	C152.572601,360.013092 153.089249,359.963989 153.797913,359.966370 
	C153.472946,360.056641 152.955948,360.095428 152.247452,360.098206 
z"/>
<path fill="#626262" opacity="1.000000" stroke="none" 
	d="
M93.736984,231.716827 
	C93.361893,231.780869 92.841095,231.583527 92.152222,231.160034 
	C92.519867,231.107727 93.055573,231.281586 93.736984,231.716827 
z"/>
<path fill="#323232" opacity="1.000000" stroke="none" 
	d="
M102.999573,232.006470 
	C103.005493,232.015717 103.198166,231.851120 103.198166,231.851120 
	C103.198166,231.851120 103.081551,231.953659 103.028702,231.967484 
	C102.975853,231.981308 102.993660,231.997238 102.999573,232.006470 
z"/>
<path fill="#626262" opacity="1.000000" stroke="none" 
	d="
M91.997681,230.744141 
	C91.875420,230.977905 91.687340,230.989197 91.217041,230.985779 
	C91.267159,230.821274 91.599503,230.671478 91.997681,230.744141 
z"/>
<path fill="#212325" opacity="1.000000" stroke="none" 
	d="
M130.282196,172.704651 
	C128.692291,172.183914 127.439110,171.534988 126.185928,170.886063 
	C126.860329,170.076843 127.402924,168.815994 128.242004,168.571121 
	C129.325226,168.254990 130.645538,168.751282 131.863754,168.897705 
	C131.448807,170.123947 131.033875,171.350204 130.282196,172.704651 
z"/>
<path fill="#323232" opacity="1.000000" stroke="none" 
	d="
M102.907394,297.452789 
	C103.072456,297.423004 103.165543,297.470581 103.258636,297.518188 
	C103.117561,297.522186 102.976486,297.526184 102.907394,297.452789 
z"/>
<path fill="#323232" opacity="1.000000" stroke="none" 
	d="
M105.544029,298.852783 
	C105.427658,298.868103 105.152283,298.548859 104.954147,298.048431 
	C105.149261,298.084229 105.267136,298.301208 105.544029,298.852783 
z"/>
<path fill="#212121" opacity="1.000000" stroke="none" 
	d="
M91.208710,234.354797 
	C91.345520,234.648697 91.299103,234.932495 91.252686,235.216278 
	C91.176956,234.925751 91.101219,234.635223 91.208710,234.354797 
z"/>
<path fill="#212121" opacity="1.000000" stroke="none" 
	d="
M95.100609,299.047302 
	C95.178665,299.098663 95.243546,299.308746 95.224304,299.837769 
	C95.084854,299.840912 95.067261,299.524017 95.100609,299.047302 
z"/>
<path fill="#323232" opacity="1.000000" stroke="none" 
	d="
M95.428070,296.746521 
	C95.541672,296.844177 95.617203,297.010468 95.745552,297.082001 
	C95.816620,297.121582 95.976067,297.002563 96.095673,296.955017 
	C95.956009,296.894653 95.816345,296.834320 95.539215,296.807556 
	C95.401741,296.841187 95.412071,296.775574 95.428070,296.746521 
z"/>
</svg>