<?xml version="1.0" encoding="UTF-8"?><svg xmlns="http://www.w3.org/2000/svg" viewBox="0 0 366.29 298.02"><defs><style>.c{fill:#fff;}.d{fill:none;stroke:#1d1d1b;stroke-miterlimit:10;stroke-width:1.52px;}.e{fill:#1d1d1b;}</style></defs><g id="a"/><g id="b"><polygon class="e" points=".03 298.02 .03 247.26 366.18 247.26 340.87 298.02 .03 298.02"/><g><g><path class="e" d="M157.64,157.31L78.99,0,.26,157.31c-.6,1.19,0,2.16,1.33,2.16H7.33c1.33,0,2.9-.97,3.49-2.16L78.99,21.12l68.09,136.19c.59,1.19,2.16,2.16,3.49,2.16h5.73c1.33,0,1.93-.97,1.34-2.16Z"/><path class="e" d="M78.99,84.82l-17.02,33.95c-.59,1.19,0,2.16,1.33,2.16h5.73c1.33,0,2.9-.97,3.49-2.16l6.46-12.92,6.46,12.92c.59,1.19,2.16,2.16,3.49,2.16h5.73c1.33,0,1.93-.97,1.33-2.16l-17.02-33.95Z"/><path class="e" d="M78.99,42.23L31.12,137.91c-.59,1.19,0,2.16,1.33,2.16h5.73c1.33,0,2.9-.97,3.49-2.16l36.23-72.4,1.08-2.16,37.33,74.56c.59,1.19,2.17,2.16,3.49,2.16h5.73c1.33,0,1.93-.97,1.34-2.16L78.99,42.23Z"/></g><path class="e" d="M185.01,133.34c-.36-.3-.51-.3-1.39-.3h-1.04c-.88,0-1.04,0-1.41,.32-.32,.32-.32,.49-.32,1.41v22.9c0,1.49,.24,1.73,1.73,1.73h9.96c.92,0,1.09,0,1.43-.33,.3-.35,.3-.51,.3-1.39v-.81c0-.88,0-1.04-.32-1.41-.32-.32-.49-.32-1.41-.32h-7.19v-20.36c0-.93,0-1.09-.34-1.43Z"/><path class="e" d="M213.68,157.67v-.81c0-.88,0-1.04-.32-1.41-.32-.32-.49-.32-1.41-.32h-8.58v-7.97h8.27c.92,0,1.09,0,1.43-.34,.3-.35,.3-.51,.3-1.39v-.81c0-.88,0-1.04-.32-1.41-.32-.32-.49-.32-1.41-.32h-8.27v-5.58h8.58c1.47,0,1.73-.26,1.73-1.73v-.81c0-.88,0-1.04-.32-1.41-.32-.32-.49-.32-1.41-.32h-11.35c-1.47,0-1.73,.26-1.73,1.73v22.9c0,1.49,.24,1.73,1.73,1.73h11.35c1.49,0,1.73-.24,1.73-1.73Z"/><path class="e" d="M302.34,133.03c-.88,0-1.04,0-1.41,.32-.32,.32-.32,.48-.32,1.41v22.9c0,.92,0,1.09,.34,1.43,.35,.3,.51,.3,1.39,.3h1.04c.88,0,1.04,0,1.41-.32,.32-.32,.32-.49,.32-1.41v-22.9c0-.92,0-1.09-.34-1.43-.36-.3-.51-.3-1.39-.3h-1.04Z"/><path class="e" d="M364.56,145.39h-7.8c-.92,0-1.09,0-1.43,.34-.3,.36-.3,.51-.3,1.39v.81c0,.88,0,1.04,.32,1.41,.32,.32,.49,.32,1.41,.32h4.64c-.5,3.32-3.72,5.97-7.34,5.97-2.1,0-4.31-.92-6.06-2.51-1.98-1.76-2.99-4.06-2.99-6.84,0-5.4,4.01-9.47,9.32-9.47,2.59,0,5.26,1.26,6.78,3.19,.27,.39,.54,.63,1.02,.63,.44,0,.64-.17,1.21-.7l.7-.66c.57-.54,.75-.77,.75-1.22,0-.37-.13-.64-.47-.98-2.94-3.09-6.14-4.54-10.07-4.54-7.71,0-13.74,6.04-13.74,13.74s6.03,13.62,13.44,13.62c4.66,0,8.88-2.52,11.01-6.57,.92-1.76,1.35-3.87,1.35-6.63,0-1.1-.58-1.31-1.73-1.31Z"/><path class="e" d="M333.82,133.03h-1.04c-.88,0-1.04,0-1.41,.32-.32,.32-.32,.49-.32,1.41v15.7l-16.4-17.15c-.55-.59-.78-.79-1.22-.79-1.01,0-1.15,.83-1.15,1.73v23.4c0,.92,0,1.09,.34,1.43,.35,.3,.51,.3,1.39,.3h1.04c.88,0,1.04,0,1.41-.32,.32-.32,.32-.49,.32-1.41v-15.86l16.4,17.14c.55,.58,.78,.79,1.22,.79,1.01,0,1.15-.83,1.15-1.72v-23.26c0-.92,0-1.09-.34-1.43-.35-.3-.51-.3-1.39-.3Z"/><path class="e" d="M291.65,133.03h-1.04c-.88,0-1.04,0-1.41,.32-.32,.32-.32,.49-.32,1.41v15.7l-16.4-17.15c-.55-.59-.78-.79-1.22-.79-1.01,0-1.15,.83-1.15,1.73v23.4c0,.92,0,1.09,.34,1.43,.36,.3,.51,.3,1.39,.3h1.04c.88,0,1.04,0,1.41-.32,.32-.32,.32-.49,.32-1.41v-15.86l16.4,17.14c.55,.58,.78,.79,1.23,.79,1.01,0,1.15-.83,1.15-1.72v-23.26c0-.92,0-1.09-.34-1.43-.35-.3-.51-.3-1.39-.3Z"/><path class="e" d="M257.93,148.32c3.32-.91,5.51-3.83,5.51-7.41,0-2.55-1.23-4.98-3.22-6.32-1.68-1.12-3.64-1.56-6.97-1.56h-3.13c-1.47,0-1.73,.26-1.73,1.73v22.9c0,.92,0,1.09,.34,1.43,.35,.3,.51,.3,1.39,.3h1.04c.88,0,1.04,0,1.41-.32,.32-.32,.32-.49,.32-1.41v-8.81h.24l6.67,9.61c.64,.89,.73,.93,1.87,.93h1.51c.51,0,1.69,0,1.69-1.11,0-.32-.16-.66-.56-1.18l-6.38-8.79Zm1.12-7.37c0,1.25-.56,2.39-1.49,3.04-.84,.59-2.07,.87-3.73,.87h-.93v-7.55h1.09c1.73,0,2.8,.24,3.69,.83,.85,.6,1.38,1.68,1.38,2.8Z"/><path class="e" d="M338.63,121.09h11.36c1.49,0,1.73-.24,1.73-1.73v-.81c0-.88,0-1.04-.32-1.41-.32-.32-.49-.32-1.41-.32h-8.58v-7.97h8.27c.92,0,1.09,0,1.43-.34,.3-.35,.3-.51,.3-1.39v-.81c0-.88,0-1.04-.32-1.41-.32-.32-.49-.32-1.41-.32h-8.27v-5.58h8.58c1.49,0,1.73-.24,1.73-1.73v-.81c0-.88,0-1.04-.32-1.41-.32-.32-.49-.32-1.41-.32h-11.36c-1.47,0-1.73,.26-1.73,1.73v22.91c0,1.47,.26,1.73,1.73,1.73Z"/><path class="e" d="M318.06,99h4.18v20.36c0,.92,0,1.09,.34,1.42,.35,.31,.51,.31,1.39,.31h1.04c.88,0,1.04,0,1.41-.32,.32-.32,.32-.49,.32-1.41v-20.36h4.18c.92,0,1.09,0,1.43-.34,.3-.35,.3-.51,.3-1.39v-.81c0-.88,0-1.04-.32-1.41-.32-.32-.49-.32-1.41-.32h-12.87c-.92,0-1.09,0-1.42,.34-.31,.36-.31,.51-.31,1.39v.81c0,.88,0,1.04,.32,1.41,.32,.32,.49,.32,1.41,.32Z"/><path class="e" d="M256.2,121.09h1.04c.88,0,1.04,0,1.41-.32,.32-.32,.32-.49,.32-1.41v-22.91c0-.92,0-1.09-.34-1.43-.35-.3-.51-.3-1.39-.3h-1.04c-.88,0-1.04,0-1.41,.32-.32,.32-.32,.49-.32,1.41v22.91c0,.92,0,1.09,.34,1.42,.36,.31,.51,.31,1.39,.31Z"/><path class="e" d="M222.69,121.6c1.8,0,3.55-.33,5.05-.94,.84-.31,1.64-.71,1.87-.94,.34-.29,.38-.52,.38-1.39v-1.39c0-.57,0-1.77-1-1.77-.21,0-.43,.08-.78,.28-2.12,1.44-3.41,1.88-5.51,1.88-5.12,0-9.12-4.09-9.12-9.31s4.06-9.51,9.24-9.51c1.43,0,2.7,.32,4.11,1.05q1.73,.92,2.07,.92c1,0,1-1.17,1-1.73v-1.23c0-.88-.03-1.08-.37-1.42-1.04-.96-4.27-1.86-6.66-1.86-7.66,0-13.9,6.2-13.9,13.82s6.11,13.55,13.63,13.55Z"/><path class="e" d="M235.64,99h4.18v20.36c0,.93,0,1.09,.34,1.42,.35,.31,.51,.31,1.39,.31h1.04c.88,0,1.04,0,1.41-.32,.32-.32,.32-.49,.32-1.41v-20.36h4.18c.92,0,1.09,0,1.43-.34,.3-.35,.3-.51,.3-1.39v-.81c0-.88,0-1.04-.32-1.41-.32-.32-.49-.32-1.41-.32h-12.86c-.92,0-1.09,0-1.43,.34-.3,.36-.3,.51-.3,1.39v.81c0,.88,0,1.04,.32,1.41,.32,.32,.49,.32,1.41,.32Z"/><path class="e" d="M314.8,119.23l-.12-.28-11.7-23.46c-.41-.8-.6-1.15-1.23-1.17-.63,.02-.83,.37-1.23,1.17l-11.7,23.46-.12,.28c-.17,.41-.21,.52-.21,.8,0,1.07,1.12,1.07,1.73,1.07h1.16c1.06,0,1.35-.03,1.7-.83l8.67-17.38,8.67,17.38c.35,.8,.64,.83,1.7,.83h1.16c.61,0,1.73,0,1.73-1.07,0-.28-.05-.39-.21-.8Z"/><path class="e" d="M207.16,119.23l-.12-.28-11.7-23.46c-.41-.8-.6-1.15-1.23-1.17-.63,.02-.83,.37-1.23,1.17l-11.7,23.46-.12,.28c-.17,.41-.21,.52-.21,.8,0,1.07,1.12,1.07,1.73,1.07h1.16c1.06,0,1.35-.03,1.7-.83l8.67-17.38,8.67,17.38c.35,.8,.64,.83,1.7,.83h1.16c.61,0,1.73,0,1.73-1.07,0-.28-.05-.39-.21-.8Z"/><path class="e" d="M263.79,96.68l.12,.28,11.7,23.46c.41,.8,.6,1.15,1.23,1.17,.63-.02,.83-.37,1.23-1.17l11.7-23.46,.12-.28c.17-.41,.21-.52,.21-.8,0-1.07-1.12-1.07-1.73-1.07h-1.16c-1.06,0-1.35,.03-1.7,.83l-8.67,17.38-8.67-17.38c-.35-.8-.64-.83-1.7-.83h-1.16c-.61,0-1.73,0-1.73,1.07,0,.28,.05,.39,.21,.8Z"/><path class="e" d="M243.8,157.52l-.12-.28-11.7-23.46c-.41-.8-.6-1.15-1.23-1.17-.63,.02-.83,.37-1.23,1.17l-11.7,23.46-.12,.28c-.17,.41-.21,.52-.21,.8,0,1.07,1.12,1.07,1.73,1.07h1.16c1.06,0,1.35-.03,1.7-.83l8.67-17.38,8.67,17.38c.35,.8,.64,.83,1.7,.83h1.16c.61,0,1.73,0,1.73-1.07,0-.28-.05-.39-.21-.8Z"/></g><g><path class="e" d="M14.6,213.33c.35,.43,.45,.67,.45,.87,0,.5-.35,.7-1.25,.7h-1.35q-.94,0-1.45-.7l-6.06-8.39h-.62v7.86c0,.77,0,.83-.21,1.03-.24,.2-.31,.2-1.07,.2h-.94c-.76,0-.83,0-1.07-.2-.21-.2-.21-.27-.21-1.03v-19.74c0-1.13,.1-1.23,1.28-1.23h2.81c2.98,0,4.64,.37,6.1,1.3,1.7,1.1,2.77,3.1,2.77,5.23,0,3.1-2.04,5.59-5.13,6.23l5.96,7.89Zm-9.18-10.46c1.56,0,2.7-.27,3.5-.8,.9-.6,1.46-1.67,1.46-2.83,0-1.07-.52-2.06-1.35-2.63-.83-.53-1.84-.77-3.46-.77h-1.25v7.03h1.11Z"/><path class="e" d="M24.29,201.17h7.69c.8,0,.87,0,1.07,.2,.21,.23,.21,.3,.21,1.03v.7c0,.73,0,.8-.21,1.03-.21,.2-.28,.2-1.07,.2h-7.69v7.39h7.97c.8,0,.87,0,1.07,.2,.21,.23,.21,.3,.21,1.03v.7c0,1.13-.1,1.23-1.28,1.23h-10.18c-1.18,0-1.28-.1-1.28-1.23v-19.74c0-1.13,.1-1.23,1.28-1.23h10.18c.8,0,.87,0,1.07,.2,.21,.23,.21,.3,.21,1.03v.7c0,1.13-.1,1.23-1.28,1.23h-7.97v5.33Z"/><path class="e" d="M43.79,209.5l-2.15,4.53-.14,.3c-.24,.53-.35,.57-1.28,.57h-1.04c-.94,0-1.28-.17-1.28-.67,0-.23,.03-.27,.28-.83l9.8-20.21c.35-.73,.48-.87,.9-.87s.55,.13,.9,.87l9.46,20.24c.24,.53,.28,.57,.28,.8,0,.2-.21,.5-.42,.57-.17,.1-.24,.1-.87,.1h-1.11q-1.04,0-1.42-.9l-2.04-4.49h-9.87Zm5.06-10.69l-3.6,7.52h7.03l-3.43-7.52Z"/><path class="e" d="M64.43,193.91c0-1.13,.1-1.23,1.28-1.23h3.57c3.98,0,6.3,.6,8.56,2.17,2.88,2.03,4.47,5.19,4.47,8.92s-1.59,6.89-4.64,8.99c-2.32,1.63-4.33,2.13-8.45,2.13h-3.5c-1.18,0-1.28-.1-1.28-1.23v-19.74Zm5.06,17.81c2.81,0,4.54-.47,6.17-1.6,2.01-1.43,3.15-3.73,3.15-6.33s-1.18-4.99-3.15-6.39c-1.52-1.1-3.36-1.57-6.17-1.57h-1.56v15.88h1.56Z"/><path class="e" d="M91.79,213.66c0,.77,0,.83-.21,1.03-.24,.2-.31,.2-1.07,.2h-.94c-.76,0-.83,0-1.07-.2-.21-.2-.21-.27-.21-1.03v-19.74c0-.77,0-.83,.21-1.03,.24-.2,.31-.2,1.07-.2h.94c.76,0,.83,0,1.07,.2,.21,.2,.21,.27,.21,1.03v19.74Z"/><path class="e" d="M115.79,193.91c0-.77,0-.83,.21-1.03,.24-.2,.31-.2,1.07-.2h.94c.76,0,.83,0,1.07,.2,.21,.2,.21,.27,.21,1.03v20.04c0,.93-.21,1.23-.76,1.23-.28,0-.42-.1-.9-.6l-15.17-15.25v14.32c0,.77,0,.83-.21,1.03-.24,.2-.31,.2-1.07,.2h-.94c-.76,0-.83,0-1.07-.2-.21-.2-.21-.27-.21-1.03v-20.18c0-.93,.21-1.23,.76-1.23,.28,0,.42,.1,.9,.6l15.17,15.25v-14.18Z"/><path class="e" d="M139.79,206.5c-.8,0-.87,0-1.07-.2-.21-.23-.21-.3-.21-1.03v-.7c0-.73,0-.8,.21-1.03,.21-.2,.28-.2,1.07-.2h7c1.04,0,1.28,.17,1.28,.87,0,2.33-.38,4.13-1.18,5.59-1.87,3.43-5.54,5.53-9.63,5.53-6.48,0-11.78-5.16-11.78-11.49s5.33-11.59,12.05-11.59c3.46,0,6.23,1.2,8.83,3.83,.28,.27,.35,.43,.35,.67,0,.27-.07,.4-.59,.87l-.62,.57c-.52,.47-.62,.53-.9,.53s-.45-.1-.69-.43c-1.42-1.73-3.88-2.86-6.3-2.86-4.88,0-8.62,3.66-8.62,8.42,0,2.46,.94,4.53,2.77,6.09,1.63,1.43,3.67,2.23,5.61,2.23,3.46,0,6.58-2.53,6.89-5.66h-4.47Z"/><path class="e" d="M181.42,195.88c0,.9-.17,1.23-.62,1.23q-.24,0-1.73-.77c-1.28-.63-2.46-.93-3.81-.93-4.81,0-8.56,3.7-8.56,8.46s3.71,8.29,8.45,8.29c1.94,0,3.15-.4,5.09-1.66,.24-.13,.42-.2,.55-.2,.45,0,.62,.37,.62,1.27v1.2c0,.73-.03,.83-.24,1-.17,.17-.83,.5-1.59,.77-1.35,.53-2.91,.8-4.43,.8-6.62,0-11.95-5.09-11.95-11.42s5.44-11.65,12.19-11.65c2.08,0,4.92,.77,5.78,1.53,.21,.2,.24,.27,.24,1.03v1.07Z"/><path class="e" d="M209.99,203.8c0,6.39-5.44,11.52-12.19,11.52-3.33,0-6.75-1.5-9.04-3.93-1.94-2.06-2.91-4.66-2.91-7.69,0-6.26,5.51-11.45,12.12-11.45s12.02,5.19,12.02,11.55Zm-20.64-.07c0,2.5,.83,4.46,2.56,6.06,1.63,1.5,3.81,2.36,5.92,2.36,4.88,0,8.66-3.66,8.66-8.36s-3.71-8.39-8.55-8.39-8.59,3.66-8.59,8.32Z"/><path class="e" d="M224.98,211.73c.8,0,.87,0,1.07,.2,.21,.23,.21,.3,.21,1.03v.7c0,.73,0,.8-.21,1.03-.21,.2-.28,.2-1.07,.2h-7.72c-1.18,0-1.28-.1-1.28-1.23v-19.74c0-.77,0-.83,.21-1.03,.24-.2,.31-.2,1.07-.2h.94c.76,0,.83,0,1.07,.2,.21,.2,.21,.27,.21,1.03v17.81h5.51Z"/><path class="e" d="M240.19,211.73c.8,0,.87,0,1.07,.2,.21,.23,.21,.3,.21,1.03v.7c0,.73,0,.8-.21,1.03-.21,.2-.28,.2-1.07,.2h-7.72c-1.18,0-1.28-.1-1.28-1.23v-19.74c0-.77,0-.83,.21-1.03,.24-.2,.31-.2,1.07-.2h.94c.76,0,.83,0,1.07,.2,.21,.2,.21,.27,.21,1.03v17.81h5.51Z"/><path class="e" d="M249.88,201.17h7.69c.8,0,.87,0,1.07,.2,.21,.23,.21,.3,.21,1.03v.7c0,.73,0,.8-.21,1.03-.21,.2-.28,.2-1.07,.2h-7.69v7.39h7.97c.8,0,.87,0,1.07,.2,.21,.23,.21,.3,.21,1.03v.7c0,1.13-.1,1.23-1.28,1.23h-10.18c-1.18,0-1.28-.1-1.28-1.23v-19.74c0-1.13,.1-1.23,1.28-1.23h10.18c.8,0,.87,0,1.07,.2,.21,.23,.21,.3,.21,1.03v.7c0,1.13-.1,1.23-1.28,1.23h-7.97v5.33Z"/><path class="e" d="M278.49,206.5c-.8,0-.87,0-1.07-.2-.21-.23-.21-.3-.21-1.03v-.7c0-.73,0-.8,.21-1.03,.21-.2,.28-.2,1.07-.2h7c1.04,0,1.28,.17,1.28,.87,0,2.33-.38,4.13-1.18,5.59-1.87,3.43-5.54,5.53-9.63,5.53-6.48,0-11.78-5.16-11.78-11.49s5.33-11.59,12.05-11.59c3.46,0,6.24,1.2,8.83,3.83,.28,.27,.35,.43,.35,.67,0,.27-.07,.4-.59,.87l-.62,.57c-.52,.47-.62,.53-.9,.53s-.45-.1-.69-.43c-1.42-1.73-3.88-2.86-6.3-2.86-4.88,0-8.62,3.66-8.62,8.42,0,2.46,.94,4.53,2.77,6.09,1.63,1.43,3.67,2.23,5.61,2.23,3.46,0,6.58-2.53,6.89-5.66h-4.47Z"/><path class="e" d="M296.26,201.17h7.69c.8,0,.87,0,1.07,.2,.21,.23,.21,.3,.21,1.03v.7c0,.73,0,.8-.21,1.03-.21,.2-.28,.2-1.07,.2h-7.69v7.39h7.97c.8,0,.87,0,1.07,.2,.21,.23,.21,.3,.21,1.03v.7c0,1.13-.1,1.23-1.28,1.23h-10.18c-1.18,0-1.28-.1-1.28-1.23v-19.74c0-1.13,.1-1.23,1.28-1.23h10.18c.8,0,.87,0,1.07,.2,.21,.23,.21,.3,.21,1.03v.7c0,1.13-.1,1.23-1.28,1.23h-7.97v5.33Z"/></g><path class="d" d="M0,227.34H366.25M0,180.23H366.25"/><path class="c" d="M324.27,266.74h5.86c.83,.03,1-.14,.97-1v-1.23c.03-.86-.14-1.03-.97-1h-8.61c-.83-.03-1,.14-.97,1v17.07c-.03,.86,.14,1.03,.97,1h8.61c.83,.03,1-.14,.97-1v-1.23c.03-.86-.14-1.03-.97-1h-5.86v-5.15h5.6c.83,.03,1-.14,.97-1v-1.23c.03-.86-.14-1.03-.97-1h-5.6v-4.23Zm-16.39,5.55v-5.78h1.14c2.34,0,3.57,.97,3.57,2.86s-1.29,2.92-3.63,2.92h-1.09Zm4.2,2.26c1.2-.23,1.89-.57,2.63-1.2,1.06-.92,1.72-2.49,1.72-4.2s-.71-3.32-1.89-4.29c-1.06-.89-2.75-1.34-4.86-1.34h-4.55c-.83-.03-1,.14-.97,.97v17.13c-.03,.83,.14,1,.97,.97h1.77c.83,.03,1-.14,.97-.97v-6.69h.49l4.75,7.06q.29,.46,.43,.54t.69,.06h2.29c.74,0,1-.14,1-.54,0-.2-.06-.31-.37-.71l-5.06-6.78Zm-18.33-7.81v14.87c-.03,.83,.14,1,.97,.97h1.77c.83,.03,1-.14,.97-.97v-14.87h3.32c.83,.03,1-.14,.97-1v-1.23c.03-.86-.14-1.03-.97-1h-10.32c-.83-.03-1,.14-.97,1v1.23c-.03,.86,.14,1.03,.97,1h3.29Zm-10.38,9.61l-11.18-12.78c-.4-.46-.43-.49-.77-.49h-1.26c-.83-.03-1,.14-.97,.97v17.56c-.03,.83,.14,1,.97,.97h1.77c.83,.03,1-.14,.97-.97v-11.92l11.18,12.78c.4,.46,.43,.49,.77,.49h1.26c.83,.03,1-.14,.97-.97v-17.5c.03-.83-.14-1-.97-.97h-1.77c-.83-.03-1,.14-.97,.97v11.87Zm-24.62-9.61h5.86c.83,.03,1-.14,.97-1v-1.23c.03-.86-.14-1.03-.97-1h-8.61c-.83-.03-1,.14-.97,1v17.07c-.03,.86,.14,1.03,.97,1h8.61c.83,.03,1-.14,.97-1v-1.23c.03-.86-.14-1.03-.97-1h-5.86v-5.15h5.6c.83,.03,1-.14,.97-1v-1.23c.03-.86-.14-1.03-.97-1h-5.6v-4.23Zm-7.21-1.72c0-.6-.03-.69-.2-.83-.63-.54-2.92-1.12-4.43-1.12-5.6,0-10.09,4.46-10.09,10.07s4.43,9.87,10.07,9.87c1.43,0,2.77-.29,4.2-.92,.14-.06,.2-.09,.26-.14,.17-.14,.2-.23,.2-.83v-1.92c0-.77-.09-1-.4-1-.09,0-.23,.06-.34,.14-1.26,.89-2.4,1.26-3.89,1.26-3.55,0-6.26-2.8-6.26-6.49s2.72-6.63,6.38-6.63c1.09,0,2.17,.31,3.03,.89q.89,.6,1.06,.6c.31,0,.43-.23,.43-1v-1.94Zm-33.34,8.81v7.78c-.03,.83,.14,1,.97,.97h1.77c.83,.03,1-.14,.97-.97v-7.78l5.89-9.09c.29-.43,.31-.49,.31-.69,0-.4-.26-.54-1-.54h-2.2q-.74,0-1.12,.63l-3.66,6.01-3.75-6.03q-.37-.6-1.09-.6h-2.2c-.74,0-1,.14-1,.54,0,.2,.03,.26,.31,.69l5.78,9.09Zm-15.56-7.09v14.87c-.03,.83,.14,1,.97,.97h1.77c.83,.03,1-.14,.97-.97v-14.87h3.32c.83,.03,1-.14,.97-1v-1.23c.03-.86-.14-1.03-.97-1h-10.32c-.83-.03-1,.14-.97,1v1.23c-.03,.86,.14,1.03,.97,1h3.29Zm-6.66-2.26c.03-.83-.14-1-.97-.97h-1.77c-.83-.03-1,.14-.97,.97v17.13c-.03,.83,.14,1,.97,.97h1.77c.83,.03,1-.14,.97-.97v-17.13Zm-8.29,1.57c.29-.37,.34-.49,.34-.66,0-.2-.09-.34-.23-.49-1.2-1-3.32-1.72-5.12-1.72-3.46,0-5.98,2.34-5.98,5.55,0,2.52,1.26,3.89,4.72,5.15,1.54,.57,2.29,.89,2.66,1.14,.69,.49,1.03,1.14,1.03,1.92,0,1.54-1.23,2.69-2.92,2.69-.77,0-1.54-.2-2.23-.57q-.54-.31-1.43-1.34c-.17-.2-.31-.29-.51-.29s-.29,.06-.69,.43l-.94,.92c-.43,.43-.46,.49-.46,.71s.17,.51,.63,1.03c1.46,1.6,3.52,2.52,5.72,2.52,3.97,0,6.66-2.55,6.66-6.29,0-1.69-.57-3.06-1.69-4-.89-.74-1.69-1.14-3.83-1.92-2.23-.83-2.89-1.37-2.89-2.37,0-1.2,1.17-2.14,2.69-2.14,.74,0,1.72,.29,2.14,.66q.69,.57,.89,.57c.26,0,.34-.06,.71-.54l.71-.94Zm-22.99,6.23v-5.78h1.14c2.34,0,3.57,.97,3.57,2.86s-1.29,2.92-3.63,2.92h-1.09Zm4.2,2.26c1.2-.23,1.89-.57,2.63-1.2,1.06-.92,1.72-2.49,1.72-4.2s-.71-3.32-1.89-4.29c-1.06-.89-2.75-1.34-4.86-1.34h-4.55c-.83-.03-1,.14-.97,.97v17.13c-.03,.83,.14,1,.97,.97h1.77c.83,.03,1-.14,.97-.97v-6.69h.49l4.75,7.06q.29,.46,.43,.54,.14,.06,.69,.06h2.29c.74,0,1-.14,1-.54,0-.2-.06-.31-.37-.71l-5.06-6.78Zm-18.36-7.81h5.86c.83,.03,1-.14,.97-1v-1.23c.03-.86-.14-1.03-.97-1h-8.61c-.83-.03-1,.14-.97,1v17.07c-.03,.86,.14,1.03,.97,1h8.61c.83,.03,1-.14,.97-1v-1.23c.03-.86-.14-1.03-.97-1h-5.86v-5.15h5.6c.83,.03,1-.14,.97-1v-1.23c.03-.86-.14-1.03-.97-1h-5.6v-4.23Zm-15.13,9.58l-4.8-12.07c-.26-.71-.31-.77-1.09-.74h-1.97c-.71,0-.97,.14-.97,.54,0,.14,.03,.26,.2,.63l7.29,17.64c.29,.71,.34,.74,1.09,.74h.43c.74,0,.8-.03,1.09-.74l7.44-17.64c.17-.37,.2-.49,.2-.63,0-.4-.26-.54-.97-.54h-1.97c-.74-.03-.8,.03-1.09,.74l-4.86,12.07Zm-11.3-11.84c.03-.83-.14-1-.97-.97h-1.77c-.83-.03-1,.14-.97,.97v17.13c-.03,.83,.14,1,.97,.97h1.77c.83,.03,1-.14,.97-.97v-17.13Zm-11.81,11.87l-11.18-12.78c-.4-.46-.43-.49-.77-.49h-1.26c-.83-.03-1,.14-.97,.97v17.56c-.03,.83,.14,1,.97,.97h1.77c.83,.03,1-.14,.97-.97v-11.92l11.18,12.78c.4,.46,.43,.49,.77,.49h1.26c.83,.03,1-.14,.97-.97v-17.5c.03-.83-.14-1-.97-.97h-1.77c-.83-.03-1,.14-.97,.97v11.87Zm-30.17-11.87c.03-.83-.14-1-.97-.97h-1.77c-.83-.03-1,.14-.97,.97v10.69c0,2.23,.43,3.8,1.4,5.09,1.32,1.72,3.66,2.75,6.26,2.75s4.95-1.03,6.26-2.75c.97-1.29,1.4-2.86,1.4-5.09v-10.69c.03-.83-.14-1-.97-.97h-1.77c-.83-.03-1,.14-.97,.97v9.95c0,1.94-.11,2.57-.6,3.4-.63,1.09-1.92,1.77-3.35,1.77s-2.72-.69-3.35-1.77c-.49-.83-.6-1.46-.6-3.4v-9.95Zm-26.91,16.96v-16.79h2.52c4.98,0,8.52,3.46,8.52,8.38,0,2.43-.92,4.66-2.57,6.21-1.57,1.49-3.52,2.2-5.95,2.2h-2.52Zm-1.23,.2c-.03,.8,.14,.97,.94,.94h2.83c2.95,0,5.15-.83,6.98-2.66,1.8-1.77,2.8-4.23,2.8-6.89s-1-5.09-2.8-6.89c-1.83-1.8-4-2.63-6.98-2.63h-2.83c-.8-.03-.97,.14-.94,.94v17.19Zm-6.41-1.17l-14.78-16.53c-.29-.34-.46-.46-.66-.46-.43,0-.57,.23-.57,.97v17.19c0,.74,.14,.94,.63,.94,.46,0,.6-.2,.6-.94v-15.61l14.78,16.13c.34,.37,.46,.46,.66,.46,.43,0,.57-.26,.57-.97v-17.19c0-.74-.14-.94-.6-.94-.49,0-.63,.2-.63,.94v16.01Zm-23.33-5.29h-7.21l3.63-9.41,3.57,9.41Zm.46,1.14l2.23,5.55c.29,.63,.4,.74,.83,.74,.26,0,.57-.29,.57-.54,0-.14-.03-.23-.17-.63l-6.72-16.84c-.37-.94-.49-1.09-.77-1.09s-.37,.14-.77,1.09l-6.78,16.84c-.17,.43-.17,.46-.17,.63,0,.26,.31,.54,.57,.54,.46,0,.57-.11,.83-.74l2.23-5.55h8.12Z"/></g></svg>